<?xml version="1.0" standalone="no"?>
<!DOCTYPE svg PUBLIC "-//W3C//DTD SVG 20010904//EN"
 "http://www.w3.org/TR/2001/REC-SVG-20010904/DTD/svg10.dtd">
<svg version="1.0" xmlns="http://www.w3.org/2000/svg"
 width="192.000000pt" height="192.000000pt" viewBox="0 0 192.000000 192.000000"
 preserveAspectRatio="xMidYMid meet">
<metadata>
Created by potrace 1.14, written by Peter Selinger 2001-2017
</metadata>
<g transform="translate(0.000000,192.000000) scale(0.100000,-0.100000)"
fill="#000000" stroke="none">
<path d="M1286 1881 c-10 -22 -15 -45 -11 -52 5 -7 4 -10 -2 -6 -6 4 -16 20
-23 37 -7 16 -19 30 -26 30 -15 0 -18 -10 -14 -50 2 -24 1 -24 -17 -7 -11 9
-28 17 -37 17 -15 0 -17 -7 -14 -35 2 -19 0 -35 -4 -35 -4 0 -8 5 -8 10 0 13
-37 13 -45 0 -8 -14 22 -68 45 -80 11 -6 20 -16 20 -22 0 -7 -12 0 -27 14 -53
48 -93 58 -93 22 0 -8 20 -35 44 -59 25 -24 41 -47 36 -50 -4 -3 -17 5 -27 18
-28 35 -80 64 -94 50 -13 -13 10 -61 40 -83 34 -23 24 -32 -11 -10 -41 25 -68
26 -68 2 0 -22 56 -77 88 -87 12 -3 22 -11 22 -16 0 -16 -20 -10 -48 16 -51
48 -122 70 -122 39 0 -18 79 -96 91 -88 4 2 10 0 14 -6 3 -5 15 -10 25 -10 12
0 17 -5 14 -14 -4 -11 -13 -10 -47 7 -23 11 -59 21 -79 23 -31 2 -38 -1 -38
-16 0 -10 -11 -27 -23 -37 -13 -10 -29 -29 -36 -42 -9 -17 -16 -20 -24 -12 -7
7 -2 19 21 40 48 47 83 123 61 136 -17 11 -67 -35 -92 -85 -14 -28 -28 -46
-31 -41 -4 5 7 30 24 54 29 43 40 97 21 97 -17 0 -73 -53 -82 -78 -5 -14 -12
-22 -16 -19 -3 4 5 24 18 44 30 45 39 113 15 113 -19 0 -52 -42 -67 -87 -7
-21 -15 -31 -20 -26 -6 6 0 27 16 54 21 39 26 81 12 96 -12 11 -38 -14 -58
-55 -13 -26 -25 -49 -26 -51 -2 -2 -6 -2 -9 2 -4 3 3 21 15 40 23 37 28 82 10
92 -6 4 -22 -4 -36 -16 -17 -17 -24 -19 -23 -9 5 30 0 48 -15 54 -17 6 -44
-38 -47 -79 -1 -14 -5 -25 -9 -25 -4 0 -4 19 -2 43 5 50 -19 94 -37 67 -5 -8
-10 -31 -10 -50 -1 -29 -3 -32 -10 -14 -10 26 -59 66 -71 58 -14 -8 -11 -23
10 -53 l19 -27 -34 4 c-19 2 -42 1 -51 -3 -16 -6 -16 -8 6 -26 13 -10 34 -19
48 -19 l25 0 -23 -19 c-22 -18 -23 -20 -6 -26 18 -8 68 -2 100 10 9 4 17 3 17
-3 0 -6 -14 -13 -30 -17 -17 -4 -35 -15 -40 -25 -8 -15 -5 -19 16 -23 14 -2
42 -1 62 4 l37 8 -24 -18 c-16 -13 -22 -24 -17 -36 5 -14 15 -16 53 -12 37 3
43 2 31 -7 -40 -29 27 -52 84 -29 35 14 41 14 54 1 13 -13 12 -15 -16 -16 -84
-2 -119 -30 -62 -50 30 -10 102 -9 120 1 6 4 13 3 17 -3 3 -5 0 -11 -7 -11 -7
-1 -22 -2 -33 -3 -70 -6 -103 -18 -109 -42 -8 -29 -26 -31 -49 -4 -9 11 -21
20 -27 20 -18 0 -50 -39 -50 -61 0 -29 -16 -15 -23 21 -14 67 -61 19 -55 -56
2 -27 -1 -43 -7 -41 -5 2 -8 25 -7 50 4 53 -15 91 -38 77 -8 -5 -16 -14 -16
-20 -1 -5 -2 -18 -3 -27 -1 -12 -7 -6 -16 15 -21 49 -50 40 -50 -15 0 -23 -3
-39 -7 -36 -5 2 -8 10 -8 17 0 16 -32 46 -48 46 -17 0 -15 -41 2 -66 14 -20
13 -20 -31 2 -25 13 -49 21 -54 18 -18 -11 -8 -35 21 -53 l31 -18 -32 -7 c-44
-8 -62 -25 -48 -42 6 -7 16 -11 22 -9 7 2 26 6 42 10 24 5 28 4 17 -6 -6 -7
-12 -19 -12 -26 0 -22 34 -14 70 17 19 16 42 29 50 29 9 1 2 -10 -16 -24 -34
-26 -51 -65 -30 -65 31 0 76 24 96 51 13 16 29 29 37 29 8 0 -2 -16 -22 -35
-19 -20 -35 -42 -35 -50 0 -22 43 -18 75 7 l28 22 -7 -27 c-6 -24 -3 -27 17
-27 13 0 28 5 35 12 19 19 25 2 7 -25 -9 -14 -26 -28 -39 -31 -12 -3 -35 -17
-49 -30 -26 -24 -27 -28 -27 -140 0 -63 4 -126 10 -140 5 -14 27 -38 48 -53
31 -22 42 -40 61 -98 34 -104 123 -283 170 -342 81 -103 178 -137 371 -131
111 3 132 7 185 32 33 15 73 39 89 54 36 35 98 125 140 205 34 67 106 238 106
255 0 5 11 17 25 26 43 28 54 64 54 180 0 58 -4 117 -9 130 -4 13 -28 33 -52
45 -24 11 -40 22 -35 22 4 1 12 2 19 3 22 2 19 24 -8 45 -15 12 -33 21 -40 21
-7 0 -15 4 -18 9 -10 16 38 5 74 -17 19 -12 43 -22 52 -22 22 0 33 19 19 33
-18 18 -13 22 23 21 41 -2 61 9 53 30 -4 11 -19 16 -46 16 l-40 0 24 26 c48
52 21 74 -34 29 l-30 -26 -3 33 c-4 46 -32 49 -48 6 l-12 -33 -9 32 c-7 25
-15 32 -32 32 -12 -1 -40 5 -62 13 l-40 15 57 -1 c69 -1 92 15 56 38 -13 8
-38 16 -56 18 -33 2 -43 21 -17 32 8 3 15 2 15 -3 0 -13 49 -31 85 -31 28 0
35 4 35 19 0 11 -6 22 -12 25 -7 3 -1 3 13 0 53 -11 64 -11 77 -1 17 14 -10
43 -54 57 -19 7 -34 16 -34 21 0 14 27 11 43 -6 23 -22 104 -42 118 -28 16 16
3 33 -38 50 -52 21 -32 27 24 7 28 -10 58 -14 68 -10 17 6 18 8 2 24 -16 15
-15 17 25 27 23 5 43 15 45 22 5 13 -58 28 -81 20 -10 -4 -13 -1 -9 9 3 7 9
14 13 14 9 0 25 40 21 50 -6 13 -39 -4 -64 -33 l-28 -32 5 29 c3 16 1 38 -5
48 -10 18 -12 18 -28 4 -10 -9 -18 -33 -20 -58 -3 -54 -11 -64 -11 -14 0 71
-44 107 -57 46 -5 -30 -6 -30 -20 -10 -35 50 -66 -1 -39 -65 19 -44 19 -45 7
-45 -5 0 -12 15 -15 33 -9 46 -42 83 -60 68 -18 -15 -12 -76 10 -109 16 -25
13 -39 -5 -27 -6 3 -11 13 -11 22 0 23 -42 93 -56 93 -22 0 -26 -38 -10 -90 8
-24 7 -23 -24 7 -35 36 -50 35 -50 -2 0 -28 30 -95 42 -95 4 0 8 -9 8 -20 0
-35 -15 -22 -33 29 -9 26 -28 59 -42 73 -25 25 -25 25 -5 43 11 10 20 22 20
26 0 17 -46 19 -82 4 -47 -19 -51 -19 -39 3 7 12 23 18 57 20 27 1 55 9 66 18
22 21 23 34 2 34 -8 0 -12 5 -9 10 3 6 14 10 23 10 10 0 28 7 40 16 19 13 21
18 10 31 -9 12 -25 14 -67 10 -41 -5 -51 -3 -42 6 6 6 35 12 64 13 29 1 63 6
75 13 24 13 30 40 10 42 -31 3 -55 1 -75 -5 -13 -4 -23 -3 -23 2 0 14 26 22
69 22 42 0 78 21 67 39 -4 6 -11 9 -16 6 -5 -3 -11 -1 -14 3 -3 5 5 14 18 20
23 10 44 48 32 59 -3 3 -23 -3 -44 -14 l-38 -19 0 40 c1 52 -17 56 -38 7z
m-58 -96 c-3 -3 -9 2 -12 12 -6 14 -5 15 5 6 7 -7 10 -15 7 -18z m-53 -205 c3
-5 -1 -10 -10 -10 -9 0 -13 5 -10 10 3 6 8 10 10 10 2 0 7 -4 10 -10z m-95
-20 c0 -5 -2 -10 -4 -10 -3 0 -8 5 -11 10 -3 6 -1 10 4 10 6 0 11 -4 11 -10z
m-546 -59 c3 -5 -1 -12 -10 -15 -20 -8 -29 -1 -19 13 8 13 22 14 29 2z m76
-55 c0 -2 -9 -6 -20 -9 -11 -3 -18 -1 -14 4 5 9 34 13 34 5z m545 -23 c-11 -3
-24 -9 -29 -14 -13 -12 -36 -12 -36 0 0 10 30 18 65 18 l20 1 -20 -5z m199
-63 c-6 -5 -24 21 -24 34 0 6 6 1 14 -10 8 -10 12 -21 10 -24z m-386 4 c-7 -6
-57 9 -53 17 3 4 17 3 30 -3 14 -6 24 -12 23 -14z m43 -12 c-7 -2 -18 1 -23 6
-8 8 -4 9 13 5 13 -4 18 -8 10 -11z m189 -3 c0 -5 -7 -9 -15 -9 -15 0 -20 12
-9 23 8 8 24 -1 24 -14z m250 -9 c0 -5 -2 -10 -4 -10 -3 0 -8 5 -11 10 -3 6
-1 10 4 10 6 0 11 -4 11 -10z m-344 -18 c-10 -16 -46 -21 -46 -7 0 8 10 15 23
17 26 4 31 2 23 -10z m-251 -16 c-11 -8 -24 -12 -29 -8 -5 3 -1 9 10 13 31 12
39 10 19 -5z m140 -16 c3 -6 -1 -7 -9 -4 -18 7 -21 14 -7 14 6 0 13 -4 16 -10z
m261 -11 c3 -6 2 -15 -4 -21 -7 -7 -14 -3 -21 11 -10 17 -9 21 3 21 8 0 18 -5
22 -11z m-471 -39 c3 -5 1 -10 -4 -10 -6 0 -11 5 -11 10 0 6 2 10 4 10 3 0 8
-4 11 -10z m295 -21 c0 -5 -9 -9 -20 -9 -19 0 -26 11 -14 23 8 8 34 -3 34 -14z
m250 1 c0 -13 -11 -13 -30 0 -12 8 -11 10 8 10 12 0 22 -4 22 -10z m-870 -76
c0 -8 -7 -14 -15 -14 -17 0 -18 2 -9 24 7 18 24 12 24 -10z m807 10 c-3 -3
-12 -4 -19 -1 -8 3 -5 6 6 6 11 1 17 -2 13 -5z m-677 -54 c0 -5 -5 -10 -11
-10 -5 0 -7 5 -4 10 3 6 8 10 11 10 2 0 4 -4 4 -10z m-150 -34 c0 -2 -8 -10
-17 -17 -16 -13 -17 -12 -4 4 13 16 21 21 21 13z m767 -2 c-3 -3 -12 -4 -19
-1 -8 3 -5 6 6 6 11 1 17 -2 13 -5z m358 -22 c-3 -3 -11 0 -18 7 -9 10 -8 11
6 5 10 -3 15 -9 12 -12z m-1032 1 c4 -3 -7 -15 -24 -25 -37 -23 -47 -18 -22
11 18 21 34 26 46 14z m71 -53 c-10 -4 -21 -6 -24 -3 -8 7 24 22 34 16 5 -4 1
-10 -10 -13z m797 3 c13 -15 12 -15 -8 -4 -24 12 -29 21 -14 21 5 0 15 -7 22
-17z"/>
</g>
</svg>
